<svg width="190" height="51" viewBox="0 0 190 51" fill="none" xmlns="http://www.w3.org/2000/svg">
<path d="M5.73 44.13L0.6 43.17C1.56 39.29 2.56 35.78 3.6 32.64C4.66 29.5 5.75 26.81 6.87 24.57C7.99 22.33 9.13 20.61 10.29 19.41C11.47 18.19 12.65 17.58 13.83 17.58C16.21 17.58 18.4 19.79 20.4 24.21C22.4 28.61 24.1 34.99 25.5 43.35L20.19 44.07C19.95 42.75 19.69 41.4 19.41 40.02C19.13 38.62 18.84 37.26 18.54 35.94C18.06 35.92 17.54 35.91 16.98 35.91C16 35.91 14.96 35.93 13.86 35.97C12.78 36.01 11.71 36.08 10.65 36.18C9.61 36.26 8.64 36.35 7.74 36.45C7.36 37.73 6.99 39.03 6.63 40.35C6.29 41.65 5.99 42.91 5.73 44.13ZM11.25 26.61C10.81 27.55 10.22 29.07 9.48 31.17C10.34 31.07 11.25 31 12.21 30.96C13.17 30.9 14.11 30.87 15.03 30.87C15.81 30.87 16.56 30.89 17.28 30.93C17 29.91 16.73 29 16.47 28.2C16.23 27.4 16.01 26.77 15.81 26.31C15.39 25.23 15.02 24.47 14.7 24.03C14.38 23.57 14.05 23.34 13.71 23.34C13.35 23.34 12.99 23.58 12.63 24.06C12.27 24.52 11.81 25.37 11.25 26.61ZM27.7249 50.52C27.5849 48.92 27.4849 47.31 27.4249 45.69C27.3649 44.07 27.3349 42.2 27.3349 40.08C27.3349 37.5 27.3749 34.93 27.4549 32.37C27.5349 29.81 27.6549 27.47 27.8149 25.35L32.9749 25.5C32.9149 25.96 32.8649 26.45 32.8249 26.97C33.5449 26.49 34.3149 26.14 35.1349 25.92C35.9749 25.7 36.8249 25.59 37.6849 25.59C38.7849 25.59 39.8549 25.77 40.8949 26.13C41.9349 26.47 42.8749 27.02 43.7149 27.78C44.5549 28.52 45.2149 29.48 45.6949 30.66C46.1949 31.84 46.4449 33.26 46.4449 34.92C46.4449 36.56 46.1949 37.99 45.6949 39.21C45.1949 40.43 44.5249 41.43 43.6849 42.21C42.8449 43.01 41.9049 43.6 40.8649 43.98C39.8249 44.38 38.7549 44.58 37.6549 44.58C35.6349 44.58 33.8549 43.98 32.3149 42.78C32.3549 44.06 32.4149 45.29 32.4949 46.47C32.5749 47.67 32.6749 48.89 32.7949 50.13L27.7249 50.52ZM36.8749 30.57C34.8949 30.57 33.4049 31.54 32.4049 33.48C32.3449 34.68 32.3049 35.9 32.2849 37.14C32.7649 37.78 33.3849 38.34 34.1449 38.82C34.9049 39.28 35.8749 39.51 37.0549 39.51C39.8749 39.51 41.2849 37.9 41.2849 34.68C41.2849 33.82 41.1249 33.12 40.8049 32.58C40.4849 32.04 40.0849 31.63 39.6049 31.35C39.1249 31.05 38.6349 30.85 38.1349 30.75C37.6349 30.63 37.2149 30.57 36.8749 30.57ZM48.5473 22.62C48.5473 22.44 48.5373 22.26 48.5173 22.08C48.5173 21.88 48.5173 21.66 48.5173 21.42C48.5173 20.78 48.5373 20.1 48.5773 19.38C48.6173 18.66 48.6573 18.05 48.6973 17.55L54.0373 17.64C53.9773 18.32 53.9073 19.09 53.8273 19.95C53.7673 20.81 53.7273 21.7 53.7073 22.62H48.5473ZM48.4273 44.1C48.3673 42.86 48.3273 41.54 48.3073 40.14C48.2873 38.72 48.2773 37.3 48.2773 35.88C48.2773 34.02 48.2973 32.21 48.3373 30.45C48.3773 28.69 48.4273 27.09 48.4873 25.65L53.6473 25.62C53.5673 26.54 53.5173 27.68 53.4973 29.04C53.4773 30.38 53.4673 31.79 53.4673 33.27C53.4673 34.73 53.4773 36.17 53.4973 37.59C53.5173 39.01 53.5373 40.3 53.5573 41.46C53.5973 42.6 53.6273 43.48 53.6473 44.1H48.4273ZM56.4574 22.62C56.4574 22.44 56.4474 22.26 56.4274 22.08C56.4274 21.88 56.4274 21.66 56.4274 21.42C56.4274 20.78 56.4474 20.1 56.4874 19.38C56.5274 18.66 56.5674 18.05 56.6074 17.55L61.9474 17.64C61.8874 18.32 61.8174 19.09 61.7374 19.95C61.6774 20.81 61.6374 21.7 61.6174 22.62H56.4574ZM56.3374 44.1C56.2774 42.86 56.2374 41.54 56.2174 40.14C56.1974 38.72 56.1874 37.3 56.1874 35.88C56.1874 34.02 56.2074 32.21 56.2474 30.45C56.2874 28.69 56.3374 27.09 56.3974 25.65L61.5574 25.62C61.4774 26.54 61.4274 27.68 61.4074 29.04C61.3874 30.38 61.3774 31.79 61.3774 33.27C61.3774 34.73 61.3874 36.17 61.4074 37.59C61.4274 39.01 61.4474 40.3 61.4674 41.46C61.5074 42.6 61.5374 43.48 61.5574 44.1H56.3374ZM69.2576 50.13L64.7576 47.73C65.8776 46.49 66.9676 45.21 68.0276 43.89C69.0876 42.59 70.0976 41.25 71.0576 39.87C70.1176 38.61 69.1776 37.26 68.2376 35.82C67.2976 34.36 66.4276 32.93 65.6276 31.53C64.8276 30.13 64.1776 28.88 63.6776 27.78L68.4776 25.68C68.8376 26.64 69.2976 27.68 69.8576 28.8C70.4376 29.92 71.0676 31.06 71.7476 32.22C72.4476 33.38 73.1676 34.49 73.9076 35.55C76.0676 32.05 77.8476 28.6 79.2476 25.2L84.2276 27.18C83.3276 28.9 82.3076 30.75 81.1676 32.73C80.0476 34.69 78.8376 36.69 77.5376 38.73C76.2576 40.75 74.9176 42.73 73.5176 44.67C72.1176 46.63 70.6976 48.45 69.2576 50.13ZM92.9438 44.46C91.6638 44.46 90.6038 44.23 89.7638 43.77C88.9438 43.33 88.2838 42.72 87.7838 41.94C87.3038 41.16 86.9438 40.29 86.7038 39.33C86.4838 38.35 86.3338 37.34 86.2538 36.3C86.1938 35.24 86.1638 34.22 86.1638 33.24C86.1638 32.12 86.1938 30.98 86.2538 29.82C86.3338 28.66 86.4138 27.39 86.4938 26.01L91.9838 25.68C91.9238 26.1 91.8338 26.73 91.7138 27.57C91.5938 28.41 91.4838 29.37 91.3838 30.45C91.2838 31.53 91.2338 32.66 91.2338 33.84C91.2338 35.78 91.4038 37.22 91.7438 38.16C92.0838 39.08 92.5938 39.54 93.2738 39.54C94.6338 39.54 95.6338 38.55 96.2738 36.57C96.9138 34.59 97.2338 31.46 97.2338 27.18V25.8L99.7838 25.74L102.874 25.68C102.594 27.56 102.384 29.29 102.244 30.87C102.104 32.45 102.014 33.78 101.974 34.86C101.934 35.92 101.914 36.63 101.914 36.99C101.914 37.91 101.994 38.57 102.154 38.97C102.314 39.35 102.594 39.54 102.994 39.54C103.194 39.54 103.414 39.5 103.654 39.42C103.894 39.34 104.174 39.2 104.494 39L104.284 44.16C103.524 44.28 102.864 44.34 102.304 44.34C101.344 44.34 100.554 44.16 99.9338 43.8C99.3338 43.44 98.8538 42.96 98.4938 42.36C97.8738 43.02 97.1038 43.53 96.1838 43.89C95.2838 44.27 94.2038 44.46 92.9438 44.46ZM117.917 44.34C115.997 44.34 114.407 44.03 113.147 43.41C111.887 42.81 110.877 41.98 110.117 40.92C109.377 39.84 108.817 38.6 108.437 37.2C108.077 35.8 107.837 34.3 107.717 32.7C107.617 31.1 107.567 29.48 107.567 27.84C107.567 25.98 107.627 24.17 107.747 22.41C107.867 20.63 107.997 19.14 108.137 17.94L113.657 18.27C113.457 19.73 113.297 21.04 113.177 22.2C113.077 23.34 113.007 24.42 112.967 25.44C112.927 26.46 112.907 27.51 112.907 28.59C112.907 29.43 112.917 30.34 112.937 31.32C112.977 32.28 113.067 33.24 113.207 34.2C113.367 35.14 113.607 36 113.927 36.78C114.267 37.54 114.737 38.16 115.337 38.64C115.957 39.1 116.747 39.33 117.707 39.33C118.747 39.33 119.587 39.1 120.227 38.64C120.887 38.16 121.397 37.53 121.757 36.75C122.117 35.95 122.377 35.07 122.537 34.11C122.697 33.13 122.787 32.14 122.807 31.14C122.847 30.12 122.867 29.16 122.867 28.26C122.867 26.56 122.817 24.91 122.717 23.31C122.617 21.71 122.487 20.01 122.327 18.21L127.847 17.79C128.007 19.71 128.127 21.47 128.207 23.07C128.287 24.65 128.327 26.11 128.327 27.45C128.327 29.27 128.257 31.02 128.117 32.7C127.997 34.38 127.737 35.93 127.337 37.35C126.937 38.75 126.357 39.98 125.597 41.04C124.837 42.08 123.827 42.89 122.567 43.47C121.327 44.05 119.777 44.34 117.917 44.34ZM132.471 44.07C132.311 43.03 132.171 41.77 132.051 40.29C131.951 38.81 131.871 37.2 131.811 35.46C131.771 33.72 131.751 31.95 131.751 30.15C131.751 27.89 131.791 25.69 131.871 23.55C131.951 21.41 132.071 19.53 132.231 17.91L137.751 18C137.531 19.42 137.361 21.09 137.241 23.01C137.141 24.93 137.091 27.11 137.091 29.55C137.091 32.03 137.131 34.52 137.211 37.02C137.311 39.52 137.421 41.81 137.541 43.89L132.471 44.07ZM141.022 44.13C140.962 42.39 140.932 40.43 140.932 38.25C140.932 36.21 140.962 34.05 141.022 31.77C141.082 29.49 141.182 27.17 141.322 24.81C141.462 22.45 141.632 20.15 141.832 17.91L147.052 18C146.872 19.4 146.712 20.83 146.572 22.29C146.452 23.73 146.352 25.18 146.272 26.64C147.112 26.06 148.122 25.39 149.302 24.63C150.502 23.85 151.782 23.07 153.142 22.29C154.502 21.49 155.862 20.73 157.222 20.01C158.602 19.29 159.892 18.68 161.092 18.18L162.562 23.28C161.342 23.78 160.112 24.33 158.872 24.93C157.652 25.53 156.482 26.13 155.362 26.73C154.262 27.31 153.282 27.87 152.422 28.41C151.562 28.93 150.882 29.39 150.382 29.79C149.882 30.17 149.632 30.45 149.632 30.63C149.632 30.89 150.022 31.33 150.802 31.95C151.582 32.57 152.642 33.3 153.982 34.14C155.322 34.98 156.842 35.86 158.542 36.78C160.262 37.7 162.042 38.6 163.882 39.48L161.092 44.1C158.812 42.92 156.712 41.74 154.792 40.56C152.892 39.36 151.192 38.23 149.692 37.17C148.212 36.11 146.982 35.2 146.002 34.44C146.002 35.18 146.002 35.92 146.002 36.66C146.002 38 146.012 39.3 146.032 40.56C146.072 41.8 146.112 42.96 146.152 44.04L141.022 44.13ZM165.823 22.62C165.823 22.44 165.813 22.26 165.793 22.08C165.793 21.88 165.793 21.66 165.793 21.42C165.793 20.78 165.813 20.1 165.853 19.38C165.893 18.66 165.933 18.05 165.973 17.55L171.313 17.64C171.253 18.32 171.183 19.09 171.103 19.95C171.043 20.81 171.003 21.7 170.983 22.62H165.823ZM165.703 44.1C165.643 42.86 165.603 41.54 165.583 40.14C165.563 38.72 165.553 37.3 165.553 35.88C165.553 34.02 165.573 32.21 165.613 30.45C165.653 28.69 165.703 27.09 165.763 25.65L170.923 25.62C170.843 26.54 170.793 27.68 170.773 29.04C170.753 30.38 170.743 31.79 170.743 33.27C170.743 34.73 170.753 36.17 170.773 37.59C170.793 39.01 170.813 40.3 170.833 41.46C170.873 42.6 170.903 43.48 170.923 44.1H165.703ZM182.823 44.37C181.623 44.37 180.673 44.11 179.973 43.59C179.273 43.09 178.763 42.39 178.443 41.49C178.123 40.59 177.913 39.56 177.813 38.4C177.733 37.24 177.693 36.02 177.693 34.74C177.693 33.42 177.743 32.05 177.843 30.63C176.503 30.81 175.213 31.04 173.973 31.32L173.043 26.61C174.703 26.17 176.473 25.85 178.353 25.65C178.493 24.63 178.643 23.56 178.803 22.44C178.963 21.3 179.143 20.1 179.343 18.84L184.503 19.29C184.263 20.33 184.053 21.37 183.873 22.41C183.693 23.43 183.533 24.42 183.393 25.38C184.513 25.38 185.563 25.41 186.543 25.47C187.543 25.51 188.463 25.59 189.303 25.71L188.703 30.42C188.003 30.34 187.273 30.29 186.513 30.27C185.773 30.23 185.023 30.21 184.263 30.21C183.803 30.21 183.343 30.22 182.883 30.24C182.763 31.7 182.683 32.95 182.643 33.99C182.623 35.03 182.613 35.77 182.613 36.21C182.613 37.31 182.673 38.1 182.793 38.58C182.933 39.06 183.153 39.3 183.453 39.3C183.793 39.3 184.173 39.19 184.593 38.97C185.013 38.73 185.423 38.41 185.823 38.01C186.243 37.61 186.593 37.18 186.873 36.72L189.183 41.55C187.203 43.43 185.083 44.37 182.823 44.37Z" fill="#160442"/>
<path d="M142 7C142 10.866 138.866 14 135 14C131.134 14 128 10.866 128 7C128 3.13401 131.134 0 135 0C138.866 0 142 3.13401 142 7Z" fill="#642DFB"/>
<path d="M173 19C173 21.7614 170.761 24 168 24C165.239 24 163 21.7614 163 19C163 16.2386 165.239 14 168 14C170.761 14 173 16.2386 173 19Z" fill="#642DFB"/>
</svg>
